<svg id="Layer_1" data-name="Layer 1" xmlns="http://www.w3.org/2000/svg" viewBox="0 0 396 463.61"><defs><style>.cls-1{fill:#4b4b4b;}</style></defs><title>ai-icon</title><path class="cls-1" d="M396,358H328v48.79c-38.42,19.15-90.44,24.47-132.26,10.34-24.82-8.45-56.14-27.3-63.92-69.15-6.24-33.88,23-64.59,35.88-76.2l.16-.13h61.48V235l130.87-70.19c2.61,1.05,4.66,3.17,7.64,3.17a22.85,22.85,0,1,0,0-45.69c-10.95,0-18.87,8.31-21.08,18.6l-93.12,49.95c16.24-23.9,24.24-52.11,12.78-88.35C252,56.6,207.15,23.73,152,18.7c-40.24-4.17-75.91,7.5-100.93,30.15h-48v68h68V59.9c23.58-17.34,54.16-22.62,79.09-20.68,46.82,4.3,84.78,31.53,96.72,69.42,12.88,40.93-4.82,69.29-31.47,95h-54v36.68L30.53,310.5c-2.62-1.05-4.68-3.19-7.68-3.19a22.85,22.85,0,1,0,0,45.69c10.95,0,18.84-8.28,21.07-18.57l82.35-44.16c-12.52,20.46-18.33,41.65-14.7,61.44,7.52,40.31,35.08,70.43,77.61,84.91,18.24,6.17,38.36,9.13,58.75,9.13,29.65,0,57.88-8.2,83.3-19.78H396Z"/></svg>