<svg id="Layer_1" data-name="Layer 1" xmlns="http://www.w3.org/2000/svg" viewBox="0 0 396 463.61"><defs><style>.cls-1{fill:#4b4b4b;}</style></defs><title>hc_icon</title><polygon class="cls-1" points="19.24 254.85 201.05 406.33 201.05 385.15 197.39 337.86 66.63 231.67 201.05 118.24 201.05 57.28 15.71 216.26 19.24 254.85"/><path class="cls-1" d="M370.25,212.74c-21.59,0-23.36-9.16-23.36-20.18,0-10.83,1.49-21.65,3.12-32.41,1.77-11.82,3.53-23.24,3.53-35,0-39.25-26.34-62.7-78.62-62.7h-10v32l7.46,9.63,9.91.14c16.7.33,22.68,6.84,22.68,25,0,6.9-.95,14-2.71,27-1.77,10.63-3.53,20.78-3.53,32.34,0,22.58,8.15,36.06,18.32,44-9.77,7.77-18.32,21.18-18.32,44.42,0,11.56,1.76,22.26,4.48,39,.81,7.11,1.76,13.81,1.76,20.78,0,20.8-8.82,25.11-30,25.38h-10v41.77h18.74c44.4,0,69.92-23.71,69.92-65.08,0-11.43-1.76-23.32-3.53-34.54-1.63-10.43-3.12-20.85-3.12-31.28,0-12.09,3.93-20.12,23.36-20.12h10V212.74Z"/></svg>