<svg id="Layer_1" data-name="Layer 1" xmlns="http://www.w3.org/2000/svg" viewBox="0 0 396 463.61"><defs><style>.cls-1{fill:#4b4b4b;}</style></defs><title>id_icon</title><path class="cls-1" d="M312.54,390.76h76.83l-65.82-47.47V171.71c0-23.37-13.43-54.31-30.49-70.35l-78-73C198.13,12.48,166.68,0,143.44,0H54.12A47.43,47.43,0,0,0,6.75,47.3V361.56a47.44,47.44,0,0,0,47.37,47.36H250v54.69l46-59.39A46.81,46.81,0,0,0,312.54,390.76ZM279.69,115.62c8.73,8.18,15.13,21.92,19.4,35.71H203.86a27.74,27.74,0,0,1-27.76-27.76V27.42c9.89,4.1,19.35,9.32,25.6,15.17ZM54.12,389.31a27.74,27.74,0,0,1-27.76-27.75V47.3A27.73,27.73,0,0,1,54.12,19.61h89.32c3.85,0,8.66,2,13.06,2.87V123.57a47.43,47.43,0,0,0,47.36,47.37h99.9c0,.23.19.54.19.77V329.14L250,290.27v99Z"/></svg>