<svg id="Layer_1" data-name="Layer 1" xmlns="http://www.w3.org/2000/svg" viewBox="0 0 396 463.61"><defs><style>.cls-1{fill:#4b4b4b;}</style></defs><title>lr_icon</title><path class="cls-1" d="M202.19,371.13c-48.65,0-88.29-42.51-88.29-94.74s39.64-94.74,88.29-94.74,88.29,42.51,88.29,94.74S250.94,371.13,202.19,371.13Zm0-165.34c-36.24,0-65.78,31.68-65.78,70.6S166,347,202.19,347s65.89-31.68,65.89-70.6S238.54,205.79,202.19,205.79Z"/><path class="cls-1" d="M309.8,430.42H94.68c-47.22,0-85.6-41.16-85.6-91.74V226.87c0-50.58,38.38-91.73,85.6-91.73h38.21c0-.06.11-.12.22-.18l10.22-11.07c6.7-7.13,13.5-14.31,23.39-17.72,9-3.12,62-3.12,71.05,0,9.88,3.41,16.69,10.59,22.62,16.9l11.2,12.07H309.8c47.22,0,85.55,41.15,85.55,91.73V338.68C395.35,389.26,357,430.42,309.8,430.42ZM94.68,159.28c-34.81,0-63.09,30.32-63.09,67.59V338.68c0,37.27,28.28,67.6,63.09,67.6H309.8c34.82,0,63.15-30.33,63.15-67.6V226.87c0-37.27-28.33-67.59-63.15-67.59H261.38l-3.3-4.18,6.26-10.66L256,152.39l-10.66-11.31c-5.38-5.77-9.66-10.3-14.38-12-6.48-1.41-51.06-1.41-57.76.12-4.4,1.53-8.68,6.06-13.18,10.95l-14.94,16.43L138,159.28Z"/></svg>