<svg id="Layer_1" data-name="Layer 1" xmlns="http://www.w3.org/2000/svg" viewBox="0 0 396 463.61"><defs><style>.cls-1{fill:#4b4b4b;}</style></defs><title>lr_icon</title><path class="cls-1" d="M202.49,322.8c-48.65,0-88.29-42.51-88.29-94.74s39.64-94.73,88.29-94.73,88.29,42.51,88.29,94.73S251.24,322.8,202.49,322.8Zm0-165.33c-36.24,0-65.78,31.67-65.78,70.59s29.54,70.6,65.78,70.6,65.89-31.68,65.89-70.6S238.84,157.47,202.49,157.47Z"/><path class="cls-1" d="M310.1,382.09H95c-47.22,0-85.6-41.15-85.6-91.73V178.55C9.38,128,47.76,86.81,95,86.81h38.21c0-.06.11-.12.22-.18l10.22-11.07c6.7-7.12,13.5-14.3,23.39-17.72,9-3.12,62-3.12,71,0,9.88,3.42,16.69,10.6,22.62,16.9l11.2,12.07H310.1c47.22,0,85.55,41.16,85.55,91.74V290.36C395.65,340.94,357.32,382.09,310.1,382.09ZM95,111c-34.81,0-63.09,30.32-63.09,67.6V290.36C31.89,327.63,60.17,358,95,358H310.1c34.82,0,63.15-30.32,63.15-67.59V178.55c0-37.28-28.33-67.6-63.15-67.6H261.68l-3.3-4.18,6.26-10.66-8.34,8-10.66-11.3c-5.38-5.77-9.66-10.31-14.38-12-6.48-1.41-51.06-1.41-57.76.12-4.4,1.53-8.68,6.07-13.18,11L145.38,108.3,138.25,111Z"/></svg>