<svg id="Layer_1" data-name="Layer 1" xmlns="http://www.w3.org/2000/svg" viewBox="0 0 396 612"><defs><style>.cls-1{fill:#231f20;}</style></defs><title>new</title><path class="cls-1" d="M312.54,465.12h76.83l-65.82-47.46V246.07c0-23.36-13.43-54.31-30.49-70.35l-78-73c-16.94-15.86-48.39-28.33-71.63-28.33H54.12a47.43,47.43,0,0,0-47.37,47.3V435.92a47.45,47.45,0,0,0,47.37,47.37H250V538l46-59.39A46.73,46.73,0,0,0,312.54,465.12ZM279.69,190c8.73,8.18,15.13,21.93,19.4,35.72H203.86a27.75,27.75,0,0,1-27.76-27.76V101.78c9.89,4.11,19.35,9.32,25.6,15.18ZM54.12,463.68a27.74,27.74,0,0,1-27.76-27.76V121.67A27.74,27.74,0,0,1,54.12,94h89.32c3.85,0,8.66,2,13.06,2.88V197.94a47.44,47.44,0,0,0,47.36,47.37h99.9c0,.23.19.53.19.76V403.51L250,364.63v99.05Z"/></svg>