<svg id="Layer_1" data-name="Layer 1" xmlns="http://www.w3.org/2000/svg" viewBox="0 0 523.2 541.55"><defs><style>.cls-1{fill:#4b4b4b;}</style></defs><title>ps_icon</title><path class="cls-1" d="M136.65,303.2v21.59A43.9,43.9,0,0,1,170,339.55c16.32,18.12,21,44.18,12.5,69.7-8.39,25.24-27.44,43.08-51,47.73a161.41,161.41,0,0,1-31.3,2.89,260.15,260.15,0,0,1-45.08-4.41C65.42,444.81,74.51,430.81,77,411.58c1-7.78,1.33-15.18,1.61-22.37.54-14,.93-24.14,7.07-34.67,10-17.13,29.05-28.79,48.57-29.69l2.37-21.65m0,0c-1.12,0-2.25,0-3.37.08C107.11,304.49,81,319.7,67.05,343.67c-12.65,21.7-8.34,41.47-11.43,65.11-2.41,18.41-13.4,30.83-27.49,42-3.07,2.43-17.41,15.29-22.69,15.29a2.69,2.69,0,0,1-.65-.08c30.41,8.24,63.22,15.48,95.49,15.48a182.43,182.43,0,0,0,35.49-3.3c66.8-13.21,96.09-102.23,50.32-153.06a65.26,65.26,0,0,0-49.44-21.9Z"/><path class="cls-1" d="M352.51,52.61l2.77.62c3.69,1.74,7.33,5.3,6.5,7.49l-29,49.88-19.88,34.18L281.4,198.85l-50.89,87.46-7.29,12.51c-8.94-8.87-20.35-16.17-33.93-21.7a151.34,151.34,0,0,0-15.56-5.37c10.46-13.1,21.09-26.08,31.72-39.06C216.8,218.82,228.14,205,239.28,191l47.89-60.15,26.67-33.49L347.71,54.7a6.55,6.55,0,0,1,4.8-2.09m0-21.6a28.1,28.1,0,0,0-20.61,9L297,83.88l-74.57,93.64c-29.27,36.76-60,72.68-88.41,110.07a129.55,129.55,0,0,1,47.17,9.53c10.22,4.16,20.05,10,27.76,17.93a49.88,49.88,0,0,1,9.3,13.15c1.24,2.62,6.17,12.66,3.77,15.19,3.81-4,6.47-10.59,9.29-15.45l17.91-30.77,50.9-87.46q25.67-44.13,51.35-88.25c9.41-16.16,18.81-32.33,29-49.88,6.19-14,.09-30.33-16-37.89a28.16,28.16,0,0,0-12-2.68Z"/><path class="cls-1" d="M208.23,465.52q75.91-7.8,151.84-12.6c50.61-6.87,101.22-6.32,151.84,12.6v3.6c-50.62,18.92-101.23,19.47-151.84,12.6q-75.92-4.8-151.84-12.6Z"/></svg>